<?xml version="1.0" encoding="UTF-8" standalone="no"?><!-- Generator: Gravit.io --><svg xmlns="http://www.w3.org/2000/svg" xmlns:xlink="http://www.w3.org/1999/xlink" style="isolation:isolate" viewBox="0 0 512 512" width="512pt" height="512pt"><defs><clipPath id="_clipPath_qtI3jaTCmWXwq2qW2z0d4q6U9sRKctUi"><rect width="512" height="512"/></clipPath></defs><g clip-path="url(#_clipPath_qtI3jaTCmWXwq2qW2z0d4q6U9sRKctUi)"><path d=" M 233.905 148.801 C 215.757 148.801 208.339 173.715 201.869 195.7 C 201.059 198.493 200.304 201.227 199.493 203.818 C 185.287 207.086 159.665 216.697 159.665 228.169 C 159.665 238.632 178.519 244.043 201.225 246.886 C 202.735 259.873 207.445 285.892 219.408 285.892 C 238.103 285.892 244.295 272.14 254.685 272.14 C 265.076 272.14 273.36 285.892 289.97 285.892 C 301.849 285.892 307.287 260.162 309.233 247.11 C 332.666 244.317 352.311 238.884 352.311 228.169 C 352.311 227.772 352.366 227.412 352.311 227.044 C 350.717 216.95 327.257 207.281 312.267 203.818 C 306.283 179.271 297.68 148.801 277.412 148.801 C 270.298 148.801 265.727 153.368 262.263 156.694 C 256.341 162.358 254.201 162.185 248.41 156.471 C 244.891 153 240.673 148.801 233.905 148.801 Z  M 215.079 253.423 C 225.469 254.866 240.832 258.387 240.832 261.995 C 240.832 264.867 236.018 269.376 229.798 270.112 C 217.323 272.984 215.079 257.031 215.079 253.423 Z  M 292.138 253.423 C 292.138 257.031 289.887 272.977 277.419 270.112 C 271.192 268.669 266.378 264.867 266.378 261.995 C 266.378 259.116 281.741 255.595 292.131 253.423 L 292.138 253.423 Z " fill="rgb(0,0,0)"/><path d=" M 169.6 359.073 L 169.6 354.923 L 177.241 354.923 L 177.241 326.774 L 169.6 326.774 L 169.6 322.623 L 189.839 322.623 L 189.839 326.774 L 182.197 326.774 L 182.197 354.923 L 189.839 354.923 L 189.839 359.073 L 169.6 359.073 L 169.6 359.073 Z  M 197.48 359.073 L 197.48 355.314 L 216.011 326.774 L 198.018 326.774 L 198.018 322.623 L 221.675 322.623 L 221.675 326.383 L 202.632 354.923 L 222.212 354.923 L 222.212 359.073 L 197.48 359.073 L 197.48 359.073 Z  M 229.805 359.073 L 229.805 354.923 L 237.446 354.923 L 237.446 326.774 L 229.805 326.774 L 229.805 322.623 L 250.044 322.623 L 250.044 326.774 L 242.402 326.774 L 242.402 354.923 L 250.044 354.923 L 250.044 359.073 L 229.805 359.073 L 229.805 359.073 Z  M 258.491 359.073 L 258.491 322.623 L 268.647 322.623 L 268.647 322.623 Q 274.678 322.623 277.852 325.333 L 277.852 325.333 L 277.852 325.333 Q 281.05 328.068 281.05 333.072 L 281.05 333.072 L 281.05 333.072 Q 281.05 335.001 280.562 336.454 L 280.562 336.454 L 280.562 336.454 Q 280.073 337.906 279.097 339.054 L 279.097 339.054 L 279.097 339.054 Q 277.168 341.349 273.555 341.861 L 273.555 341.861 L 273.555 341.861 Q 275.532 342.35 276.802 343.693 L 276.802 343.693 L 276.802 343.693 Q 277.485 344.401 278.279 345.682 L 278.279 345.682 L 278.279 345.682 Q 279.072 346.964 280.146 349.112 L 280.146 349.112 L 285.103 359.073 L 279.805 359.073 L 275.459 349.869 L 275.459 349.869 Q 274.507 347.843 273.665 346.598 L 273.665 346.598 L 273.665 346.598 Q 272.822 345.353 272.09 344.791 L 272.09 344.791 L 272.09 344.791 Q 271.333 344.205 270.32 343.937 L 270.32 343.937 L 270.32 343.937 Q 269.307 343.668 268.159 343.668 L 268.159 343.668 L 263.447 343.668 L 263.447 359.073 L 258.491 359.073 L 258.491 359.073 Z  M 263.447 339.615 L 268.843 339.615 L 268.843 339.615 Q 272.383 339.615 274.116 338.028 L 274.116 338.028 L 274.116 338.028 Q 275.85 336.442 275.85 333.219 L 275.85 333.219 L 275.85 333.219 Q 275.85 330.021 274.019 328.336 L 274.019 328.336 L 274.019 328.336 Q 273.14 327.555 271.809 327.115 L 271.809 327.115 L 271.809 327.115 Q 270.479 326.676 268.647 326.676 L 268.647 326.676 L 263.447 326.676 L 263.447 339.615 L 263.447 339.615 Z  M 286.006 359.073 L 297.163 322.623 L 303.145 322.623 L 314.302 359.073 L 309.199 359.073 L 306.514 349.576 L 293.745 349.576 L 291.108 359.073 L 286.006 359.073 L 286.006 359.073 Z  M 294.941 345.621 L 305.342 345.621 L 300.142 326.969 L 294.941 345.621 L 294.941 345.621 Z  M 317.305 359.073 L 317.305 322.623 L 323.896 322.623 L 330.195 341.178 L 336.543 322.623 L 343.159 322.623 L 343.159 359.073 L 338.594 359.073 L 338.594 326.871 L 332.1 346.085 L 328.364 346.085 L 321.846 326.871 L 321.846 359.073 L 317.305 359.073 L 317.305 359.073 Z " fill="rgb(0,0,0)"/><path d=" M 144.495 400.387 L 135.045 400.387 L 135.045 400.387 Q 98.577 400.387 85.88 389.462 L 85.88 389.462 L 85.88 389.462 Q 73.33 378.684 73.33 345.906 L 73.33 345.906 L 73.33 310.619 L 73.33 310.619 Q 73.33 288.473 65.505 279.762 L 65.505 279.762 L 65.505 279.762 Q 57.532 271.198 36.862 271.198 L 36.862 271.198 L 19.735 271.198 L 19.735 250.085 L 36.862 250.085 L 36.862 250.085 Q 57.68 250.085 65.505 241.669 L 65.505 241.669 L 65.505 241.669 Q 73.33 232.958 73.33 211.107 L 73.33 211.107 L 73.33 175.672 L 73.33 175.672 Q 73.33 142.895 85.88 132.117 L 85.88 132.117 L 85.88 132.117 Q 97.987 121.339 135.045 121.339 L 135.045 121.339 L 144.495 121.339 L 144.495 142.452 L 134.16 142.452 L 134.16 142.452 Q 113.489 142.452 107.288 148.801 L 107.288 148.801 L 107.288 148.801 Q 100.94 155.149 100.94 176.263 L 100.94 176.263 L 100.94 212.879 L 100.94 212.879 Q 100.94 236.059 94.295 246.542 L 94.295 246.542 L 94.295 246.542 Q 87.504 257.024 71.263 260.715 L 71.263 260.715 L 71.263 260.715 Q 87.651 264.702 94.295 275.185 L 94.295 275.185 L 94.295 275.185 Q 100.94 285.667 100.94 308.7 L 100.94 308.7 L 100.94 345.316 L 100.94 345.316 Q 100.94 366.429 107.288 372.778 L 107.288 372.778 L 107.288 372.778 Q 113.489 379.126 134.16 379.126 L 134.16 379.126 L 144.495 379.126 L 144.495 400.387 Z " fill="rgb(0,0,0)"/><path d=" M 370 400.387 L 379.449 400.387 L 379.449 400.387 Q 415.917 400.387 428.615 389.462 L 428.615 389.462 L 428.615 389.462 Q 441.165 378.684 441.165 345.906 L 441.165 345.906 L 441.165 310.619 L 441.165 310.619 Q 441.165 288.473 448.99 279.762 L 448.99 279.762 L 448.99 279.762 Q 456.963 271.198 477.633 271.198 L 477.633 271.198 L 494.76 271.198 L 494.76 250.085 L 477.633 250.085 L 477.633 250.085 Q 456.815 250.085 448.99 241.669 L 448.99 241.669 L 448.99 241.669 Q 441.165 232.958 441.165 211.107 L 441.165 211.107 L 441.165 175.672 L 441.165 175.672 Q 441.165 142.895 428.615 132.117 L 428.615 132.117 L 428.615 132.117 Q 416.508 121.339 379.449 121.339 L 379.449 121.339 L 370 121.339 L 370 142.452 L 380.335 142.452 L 380.335 142.452 Q 401.005 142.452 407.206 148.801 L 407.206 148.801 L 407.206 148.801 Q 413.555 155.149 413.555 176.263 L 413.555 176.263 L 413.555 212.879 L 413.555 212.879 Q 413.555 236.059 420.199 246.542 L 420.199 246.542 L 420.199 246.542 Q 426.991 257.024 443.232 260.715 L 443.232 260.715 L 443.232 260.715 Q 426.843 264.702 420.199 275.185 L 420.199 275.185 L 420.199 275.185 Q 413.555 285.667 413.555 308.7 L 413.555 308.7 L 413.555 345.316 L 413.555 345.316 Q 413.555 366.429 407.206 372.778 L 407.206 372.778 L 407.206 372.778 Q 401.005 379.126 380.335 379.126 L 380.335 379.126 L 370 379.126 L 370 400.387 Z " fill="rgb(0,0,0)"/></g></svg>