<?xml version="1.0" encoding="UTF-8" standalone="no"?>
<!-- Generator: Adobe Illustrator 19.0.0, SVG Export Plug-In . SVG Version: 6.00 Build 0)  -->

<svg
   version="1.1"
   id="Capa_1"
   x="0px"
   y="0px"
   viewBox="0 0 56 56"
   style="enable-background:new 0 0 56 56;"
   xml:space="preserve"
   sodipodi:docname="alien.svg"
   inkscape:version="1.1.1 (3bf5ae0d25, 2021-09-20)"
   xmlns:inkscape="http://www.inkscape.org/namespaces/inkscape"
   xmlns:sodipodi="http://sodipodi.sourceforge.net/DTD/sodipodi-0.dtd"
   xmlns="http://www.w3.org/2000/svg"
   xmlns:svg="http://www.w3.org/2000/svg"><defs
   id="defs936" /><sodipodi:namedview
   id="namedview934"
   pagecolor="#ffffff"
   bordercolor="#999999"
   borderopacity="1"
   inkscape:pageshadow="0"
   inkscape:pageopacity="0"
   inkscape:pagecheckerboard="0"
   showgrid="false"
   inkscape:zoom="7.2232143"
   inkscape:cx="-8.5142151"
   inkscape:cy="24.850433"
   inkscape:window-width="1920"
   inkscape:window-height="1017"
   inkscape:window-x="-8"
   inkscape:window-y="-8"
   inkscape:window-maximized="1"
   inkscape:current-layer="g901" />
<g
   id="g2026"
   transform="matrix(0.20583658,0,0,0.20139358,22.445653,8.4031207)"><g
     id="g1959">
	<path
   style="fill:#5da892"
   d="m 15,15.929 c -0.552,0 -1,-0.447 -1,-1 0,-5.514 -3.589,-10 -8,-10 -0.552,0 -1,-0.447 -1,-1 0,-0.553 0.448,-1 1,-1 5.514,0 10,5.383 10,12 0,0.553 -0.448,1 -1,1 z"
   id="path1931" />
	<path
   style="fill:#5da892"
   d="m 43,14.071 c -0.552,0 -1,-0.447 -1,-1 0,-5.552 3.449,-9 9,-9 0.553,0 1,0.447 1,1 0,0.553 -0.447,1 -1,1 -4.448,0 -7,2.552 -7,7 0,0.553 -0.448,1 -1,1 z"
   id="path1933" />
	<path
   style="fill:#81ccb8"
   d="M 29.392,57.067 C 40.638,57.223 46.912,52.686 50.4,47.878 54.003,42.912 55.164,36.595 54.047,30.555 50.004,8.709 29.392,8.894 29.392,8.894 c 0,0 -20.611,-0.185 -24.654,21.661 -1.118,6.04 0.044,12.356 3.647,17.323 3.487,4.807 9.761,9.345 21.007,9.189 z"
   id="path1935" />
	<path
   style="fill:#14a085"
   d="M 4.499,32.192 C 4.046,31.763 3.514,31.505 2.94,31.505 1.316,31.505 0,33.486 0,35.929 c 0,2.443 1.316,4.424 2.939,4.424 0.687,0 1.311,-0.37 1.811,-0.964 C 4.297,37.037 4.218,34.605 4.499,32.192 Z"
   id="path1937" />
	<path
   style="fill:#14a085"
   d="m 57.823,28.365 c -0.563,-2.377 -2.3,-3.999 -3.879,-3.622 -0.491,0.117 -0.898,0.43 -1.225,0.855 0.538,1.515 0.994,3.154 1.328,4.957 0.155,0.837 0.261,1.679 0.328,2.522 0.52,0.284 1.072,0.402 1.608,0.274 1.579,-0.376 2.403,-2.609 1.84,-4.986 z"
   id="path1939" />
	<ellipse
   style="fill:#ffffff"
   cx="29.5"
   cy="23.070999"
   rx="7.5"
   ry="6"
   id="ellipse1941" />
	<ellipse
   style="fill:#5da892"
   cx="29.5"
   cy="23.070999"
   rx="4.5"
   ry="3"
   id="ellipse1943" />
	<ellipse
   style="fill:#ffffff"
   cx="16.5"
   cy="29.070999"
   rx="7.5"
   ry="6"
   id="ellipse1945" />
	<ellipse
   style="fill:#5da892"
   cx="16.5"
   cy="29.070999"
   rx="4.5"
   ry="3"
   id="ellipse1947" />
	<ellipse
   style="fill:#ffffff"
   cx="42.5"
   cy="29.070999"
   rx="7.5"
   ry="6"
   id="ellipse1949" />
	<ellipse
   style="fill:#5da892"
   cx="42.5"
   cy="29.070999"
   rx="4.5"
   ry="3"
   id="ellipse1951" />
	<path
   style="fill:#5da892"
   d="m 45.6,41.271 -4,-3 c -0.442,-0.331 -1.068,-0.242 -1.4,0.2 -0.332,0.441 -0.242,1.068 0.2,1.399 l 1.41,1.057 c -1.273,1.601 -5.348,6.18 -10.898,7.011 -3.509,0.528 -7.038,-0.554 -10.491,-3.184 l 1.18,-0.885 c 0.442,-0.331 0.531,-0.958 0.2,-1.399 -0.331,-0.442 -0.956,-0.53 -1.4,-0.2 l -4,3 c -0.442,0.331 -0.531,0.958 -0.2,1.399 0.196,0.263 0.497,0.4 0.801,0.4 0.208,0 0.419,-0.065 0.599,-0.2 l 1.177,-0.883 c 0.034,0.036 0.055,0.081 0.095,0.112 3.344,2.641 6.792,3.971 10.278,3.971 0.689,0 1.38,-0.052 2.072,-0.156 6.351,-0.957 10.796,-6 12.191,-7.784 l 0.987,0.74 c 0.18,0.135 0.391,0.2 0.599,0.2 0.304,0 0.604,-0.138 0.801,-0.4 0.331,-0.44 0.241,-1.067 -0.201,-1.398 z"
   id="path1953" />
	<circle
   style="fill:#14a085"
   cx="3"
   cy="3.9289999"
   r="3"
   id="circle1955" />
	<circle
   style="fill:#14a085"
   cx="54"
   cy="5.0710001"
   r="3"
   id="circle1957" />
</g><g
     id="g1961">
</g><g
     id="g1963">
</g><g
     id="g1965">
</g><g
     id="g1967">
</g><g
     id="g1969">
</g><g
     id="g1971">
</g><g
     id="g1973">
</g><g
     id="g1975">
</g><g
     id="g1977">
</g><g
     id="g1979">
</g><g
     id="g1981">
</g><g
     id="g1983">
</g><g
     id="g1985">
</g><g
     id="g1987">
</g><g
     id="g1989">
</g></g><g
   id="g901">
	<path
   style="fill:#546a79;fill-opacity:0.85161293"
   d="M 46,17.222 C 46,7.711 38.165,0 28.5,0 18.835,0 11,7.711 11,17.222 c 0,0 16.771,7.894 35,0 z"
   id="path881" />
	<path
   style="fill:#f3d55b"
   d="m 11,51.291 c -0.117,0 -0.236,-0.021 -0.352,-0.064 -0.517,-0.194 -0.778,-0.771 -0.584,-1.288 l 5,-13.29 c 0.194,-0.517 0.772,-0.777 1.288,-0.584 0.517,0.194 0.778,0.771 0.584,1.288 l -5,13.29 c -0.151,0.4 -0.532,0.648 -0.936,0.648 z"
   id="path883" />
	<path
   style="fill:#f3d55b"
   d="m 48,51.291 c -0.404,0 -0.785,-0.248 -0.936,-0.648 l -5,-13.29 c -0.194,-0.517 0.067,-1.094 0.584,-1.288 0.514,-0.192 1.094,0.067 1.288,0.584 l 5,13.29 c 0.194,0.517 -0.067,1.094 -0.584,1.288 -0.116,0.043 -0.235,0.064 -0.352,0.064 z"
   id="path885" />
	<path
   style="fill:#f3d55b"
   d="m 23.001,56 c -0.045,0 -0.091,-0.003 -0.137,-0.009 -0.547,-0.075 -0.93,-0.579 -0.855,-1.126 l 1.97,-14.446 c 0.075,-0.547 0.582,-0.928 1.126,-0.855 0.547,0.075 0.93,0.579 0.855,1.126 L 23.99,55.136 C 23.922,55.636 23.494,56 23.001,56 Z"
   id="path887" />
	<path
   style="fill:#f3d55b"
   d="M 35.999,56 C 35.507,56 35.078,55.637 35.01,55.135 L 33.04,40.689 c -0.075,-0.547 0.309,-1.051 0.855,-1.126 0.544,-0.073 1.051,0.308 1.126,0.855 l 1.97,14.446 c 0.075,0.547 -0.309,1.051 -0.855,1.126 C 36.089,55.997 36.044,56 35.999,56 Z"
   id="path889" />
	<path
   style="fill:#f3d55b;fill-opacity:0.84516126"
   d="m 17.822,14.905 c -0.07,0 -0.142,-0.007 -0.213,-0.022 -0.54,-0.117 -0.882,-0.649 -0.766,-1.189 1.105,-5.1 5.869,-8.948 11.081,-8.953 0,0 0,0 0.001,0 0.552,0 1,0.447 1,0.999 0,0.552 -0.447,1 -0.999,1.001 -4.293,0.003 -8.218,3.175 -9.128,7.376 -0.101,0.468 -0.515,0.788 -0.976,0.788 z"
   id="path891" />
	<path
   style="fill:#38454f"
   d="m 44.66,10 h -0.289 c 1.035,2.199 1.629,4.64 1.629,7.222 -18.229,7.893 -35,0 -35,0 0,-2.583 0.594,-5.023 1.629,-7.222 h -0.14 C 5.541,12.164 1,16.951 1,21 1,27.607 13.088,33 28,33 42.912,33 55,27.607 55,21 55,17.177 50.959,12.19 44.66,10 Z"
   id="path893" />
	<ellipse
   style="fill:#8697cb"
   cx="29.5"
   cy="27"
   rx="3.5"
   ry="2"
   id="ellipse895" />
	
		<ellipse
   transform="matrix(0.9597,0.2809,-0.2809,0.9597,7.2437,-2.7112)"
   style="fill:#8697cb"
   cx="13.079"
   cy="23.913"
   rx="2.9860001"
   ry="1.9910001"
   id="ellipse897" />
	
		<ellipse
   transform="matrix(-0.9597,0.2809,-0.2809,-0.9597,96.4775,32.3459)"
   style="fill:#8697cb"
   cx="45.921001"
   cy="23.087"
   rx="2.9860001"
   ry="1.9910001"
   id="ellipse899" />
</g>
<g
   id="g903">
</g>
<g
   id="g905">
</g>
<g
   id="g907">
</g>
<g
   id="g909">
</g>
<g
   id="g911">
</g>
<g
   id="g913">
</g>
<g
   id="g915">
</g>
<g
   id="g917">
</g>
<g
   id="g919">
</g>
<g
   id="g921">
</g>
<g
   id="g923">
</g>
<g
   id="g925">
</g>
<g
   id="g927">
</g>
<g
   id="g929">
</g>
<g
   id="g931">
</g>
</svg>
