<?xml version="1.0" encoding="UTF-8" standalone="no"?>
<!-- Generator: Adobe Illustrator 19.0.0, SVG Export Plug-In . SVG Version: 6.00 Build 0)  -->

<svg
   version="1.1"
   id="Layer_1"
   x="0px"
   y="0px"
   viewBox="0 0 393.051 393.051"
   style="enable-background:new 0 0 393.051 393.051;"
   xml:space="preserve"
   sodipodi:docname="man (10).svg"
   inkscape:version="1.1.1 (3bf5ae0d25, 2021-09-20)"
   xmlns:inkscape="http://www.inkscape.org/namespaces/inkscape"
   xmlns:sodipodi="http://sodipodi.sourceforge.net/DTD/sodipodi-0.dtd"
   xmlns:xlink="http://www.w3.org/1999/xlink"
   xmlns="http://www.w3.org/2000/svg"
   xmlns:svg="http://www.w3.org/2000/svg"><defs
   id="defs53"><linearGradient
     inkscape:collect="always"
     id="linearGradient4571"><stop
       style="stop-color:#c6ae00;stop-opacity:1"
       offset="0"
       id="stop4567" /><stop
       style="stop-color:#dad700;stop-opacity:0.47967479"
       offset="1"
       id="stop4569" /></linearGradient><linearGradient
     id="linearGradient4253"
     inkscape:swatch="gradient"><stop
       style="stop-color:#001400;stop-opacity:1;"
       offset="0"
       id="stop4249" /><stop
       style="stop-color:#09f300;stop-opacity:1"
       offset="1"
       id="stop4251" /></linearGradient><linearGradient
     inkscape:collect="always"
     xlink:href="#linearGradient4571"
     id="linearGradient4573"
     x1="82.036"
     y1="309.463"
     x2="311.014"
     y2="309.463"
     gradientUnits="userSpaceOnUse" /></defs><sodipodi:namedview
   id="namedview51"
   pagecolor="#ffffff"
   bordercolor="#666666"
   borderopacity="1.0"
   inkscape:pageshadow="2"
   inkscape:pageopacity="0.0"
   inkscape:pagecheckerboard="0"
   showgrid="false"
   inkscape:zoom="1.0583868"
   inkscape:cx="245.18445"
   inkscape:cy="248.01896"
   inkscape:window-width="1920"
   inkscape:window-height="1017"
   inkscape:window-x="-8"
   inkscape:window-y="-8"
   inkscape:window-maximized="1"
   inkscape:current-layer="Layer_1" />
<path
   style="fill:#FACCB4;"
   d="M326.206,236.865l-77.317-18.747H144.162l-77.317,18.747c-24.63,5.754-42.214,30.125-42.214,57.923  v98.263h343.79v-98.263C368.42,266.99,350.836,242.618,326.206,236.865z"
   id="path2" />
<path
   style="fill:url(#linearGradient4573);fill-opacity:1"
   d="M281.147,225.875v26.44c0,46.61-38.012,84.622-84.622,84.622l0,0  c-46.61,0-84.622-38.012-84.622-84.622v-26.44l-29.867,7.305v159.871h228.978V233.18L281.147,225.875z"
   id="path4" />


<g
   id="g14">
	<path
   style="fill:#eeb490"
   d="m 125.737,97.552 c -14.739,0.97 -26.44,13.253 -26.44,28.251 0,14.998 11.636,27.281 26.44,28.251 z"
   id="path10" />
	<path
   style="fill:#eeb490"
   d="m 267.119,97.552 v 56.501 c 14.869,-0.905 26.634,-13.188 26.634,-28.251 0.001,-15.063 -11.765,-27.41 -26.634,-28.25 z"
   id="path12" />
</g>
<path
   style="fill:#faccb4"
   d="m 196.525,36.311005 c -39.822,0 -72.339,32.259 -72.339,72.338995 v 39.305 c 0,39.822 32.259,72.339 72.339,72.339 39.822,0 72.339,-32.259 72.339,-72.339 V 108.65 C 268.865,68.570005 236.347,36.311005 196.525,36.311005 Z"
   id="path16" />
<path
   style="fill:#ed67a6;fill-opacity:1"
   d="m 196.525,77.834 v 0 c -11.507,0 -20.687,-9.18 -20.687,-20.687 V 20.687 C 175.838,9.18 186.10366,3.5910301 196.525,0 v 0 c 7.49841,3.0899561 20.687,9.18 20.687,20.687 v 36.396 c 0,11.572 -9.18,20.751 -20.687,20.751 z"
   id="path18"
   sodipodi:nodetypes="ssssccsss" />
<g
   id="g20">
</g>
<g
   id="g22">
</g>
<g
   id="g24">
</g>
<g
   id="g26">
</g>
<g
   id="g28">
</g>
<g
   id="g30">
</g>
<g
   id="g32">
</g>
<g
   id="g34">
</g>
<g
   id="g36">
</g>
<g
   id="g38">
</g>
<g
   id="g40">
</g>
<g
   id="g42">
</g>
<g
   id="g44">
</g>
<g
   id="g46">
</g>
<g
   id="g48">
</g>
<path
   style="opacity:1;fill:#c867a6;fill-opacity:1"
   d="m 196.05258,162.46142 v 0 c -18.877,0 -34.327,15.451 -34.327,34.327 v 25.147 c 0,18.877 11.10836,-36.32443 29.98436,-36.32443 h 6.84801 c 18.877,0 31.82163,55.20043 31.82163,36.32443 v -25.147 c 0.001,-19.135 -15.45,-34.327 -34.327,-34.327 z"
   id="path8"
   sodipodi:nodetypes="ssssssscs" /></svg>
