<?xml version="1.0" encoding="UTF-8" standalone="no"?>
<!-- Generator: Adobe Illustrator 19.0.0, SVG Export Plug-In . SVG Version: 6.00 Build 0)  -->

<svg
   version="1.1"
   id="Layer_1"
   x="0px"
   y="0px"
   viewBox="0 0 508 508"
   style="enable-background:new 0 0 508 508;"
   xml:space="preserve"
   sodipodi:docname="lecture-conference-svgrepo-com.svg"
   inkscape:version="1.1.1 (3bf5ae0d25, 2021-09-20)"
   xmlns:inkscape="http://www.inkscape.org/namespaces/inkscape"
   xmlns:sodipodi="http://sodipodi.sourceforge.net/DTD/sodipodi-0.dtd"
   xmlns="http://www.w3.org/2000/svg"
   xmlns:svg="http://www.w3.org/2000/svg"><defs
   id="defs91" /><sodipodi:namedview
   id="namedview89"
   pagecolor="#ffffff"
   bordercolor="#666666"
   borderopacity="1.0"
   inkscape:pageshadow="2"
   inkscape:pageopacity="0.0"
   inkscape:pagecheckerboard="0"
   showgrid="false"
   inkscape:zoom="0.81889764"
   inkscape:cx="110.51442"
   inkscape:cy="294.90865"
   inkscape:window-width="1920"
   inkscape:window-height="1017"
   inkscape:window-x="-8"
   inkscape:window-y="-8"
   inkscape:window-maximized="1"
   inkscape:current-layer="Layer_1" />

<g
   id="g8"
   transform="translate(2.4423077,-14.653846)">
	<polygon
   style="fill:#f9b54c"
   points="414.4,322 388.8,367.6 388.8,319.6 "
   id="polygon4" />
	<path
   style="fill:#f9b54c"
   d="m 287.6,189.2 c 0,22.4 -14.8,29.6 -33.6,29.6 -18.8,0 -33.6,-7.2 -33.6,-29.6 0,-22.4 14.8,-52 33.6,-52 18.8,0 33.6,29.6 33.6,52 z"
   id="path6" />
</g>
<path
   style="fill:#e6e9ee"
   d="m 291.24231,169.34615 -1.6,92.4 -10.4,30.4 -18.8,53.2 c -0.8,0 -2,0 -2.8,0 -0.4,0 -0.8,0 -1.2,0 -0.4,0 -0.8,0 -1.2,0 -0.8,0 -2,0 -2.8,0 l -18.8,-52 -15.6,-43.6 v -70.8 l 5.2,-12.8 0.4,0.4 2,2 20.8,21.2 3.6,3.6 6.4,-3.6 0.4,-0.4 5.6,-3.2 v 0 l 25.2,-14.4 2.4,-1.2 v 0 z"
   id="path10" />
<polygon
   style="fill:#f1543f"
   points="235.6,213.2 244.4,224.4 263.6,224.4 272.4,213.2 265.2,204 242.8,204 "
   id="polygon12"
   transform="translate(2.4423077,-14.653846)" />
<path
   style="fill:#ff7058"
   d="m 283.64231,320.54615 -9.2,10.8 v 0 l -12.4,14 c -0.4,0 -1.2,0 -1.6,0 -0.8,0 -2,0 -2.8,0 -0.4,0 -0.8,0 -1.2,0 -0.4,0 -0.8,0 -1.2,0 -0.8,0 -2,0 -2.8,0 -0.4,0 -0.8,0 -1.6,0 l -12.4,-14 v 0 l -9.2,-10.8 1.2,-7.6 3.2,-20 4.4,-28.8 v 0 l 8.8,-54.4 h 19.2 l 8.8,54.4 v 0 0 l 4.4,27.6 3.2,20.8 z"
   id="path14" />
<path
   style="fill:#324a5e"
   d="m 187.64231,282.14615 c -2.4,1.6 -4.8,20 -7.2,44.4 -0.4,0 -0.4,0 -0.8,-0.4 -14,-7.2 -26.8,-16.8 -38,-27.6 4,-54.4 8,-100.4 8,-100.4 v 0 0 z"
   id="path16" />
<path
   style="fill:#2b3b4e"
   d="m 255.24231,345.34615 c -0.8,0 -2,0 -2.8,0 -0.4,0 -0.8,0 -1.6,0 -1.6,0 -3.6,0 -5.2,-0.4 -23.2,-1.6 -45.2,-8 -65.2,-18 -0.4,0 -0.4,0 -0.8,-0.4 -10,-65.6 -28.8,-123.6 -30,-127.6 v 0 0 c 49.2,-10.4 74,-41.2 76.8,-44.8 v 0 c 0,0 0,-0.4 0.4,-0.4 0,0.4 0,0.4 0,0.8 -0.8,3.6 -1.2,8 -1.2,14 0,5.6 0.4,12 0.8,18.8 v 0 c 0,1.2 0.4,2.8 0.4,4 v 0 c 2,21.6 6.8,48.4 11.2,73.2 v 0 c 8,42.4 16.8,80.4 16.8,80.4 0.4,0 0.4,0 0.4,0.4 z"
   id="path18" />
<path
   style="fill:#acb3ba"
   d="m 255.24231,345.34615 c -0.8,0 -2,0 -2.8,0 -0.4,0 -0.8,0 -1.6,0 -1.6,0 -3.6,0 -5.2,-0.4 -2.4,-4.4 -4.8,-8.8 -7.2,-13.6 v 0 c -2.8,-6 -5.6,-12 -8,-18 -20.8,-48.8 -34.4,-105.2 -34.4,-105.2 4,0.4 15.6,-4.8 15.6,-4.8 l -15.6,-18 c 16.4,-4 28,-26 30.4,-30.8 0.4,-0.4 0.4,-0.8 0.4,-0.8 0,0.4 0,0.4 0,0.8 -0.8,3.6 -1.2,8 -1.2,14 0,5.6 0.4,12 0.8,18.8 v 0 c 0,1.2 0.4,2.8 0.4,4 v 0 c 2,21.6 6.8,48.4 11.2,73.2 v 0 c 8,42.4 16.8,80.4 16.8,80.4 0.4,0 0.4,0 0.4,0.4 z"
   id="path20" />
<path
   style="fill:#2b3b4e"
   d="m 371.24231,298.94615 c -11.2,10.8 -24,20.4 -38.4,27.6 -0.4,0 -0.4,0.4 -0.8,0.4 -2.4,-24.8 -4.8,-42.8 -7.2,-44.4 l 38,-83.2 v 0 0 c 0,0 4,45.2 8.4,99.6 z"
   id="path22" />
<path
   style="fill:#324a5e"
   d="m 362.84231,198.54615 v 0 c 0,0 0,0.4 0,0 -1.6,4.4 -20,62.4 -30,128 -0.4,0 -0.4,0.4 -0.8,0.4 -19.6,10 -41.6,16.4 -64.8,18 -1.6,0 -3.6,0.4 -5.2,0.4 -0.4,0 -1.2,0 -1.6,0 -0.8,0 -2,0 -2.8,0 0,-0.4 0,-0.4 0,-0.8 0,0 8.8,-37.6 16.8,-80.4 v 0 0 c 4.8,-25.2 9.2,-51.6 11.2,-73.2 v 0 c 0,-1.2 0.4,-2.8 0.4,-4 v 0 c 0.4,-5.6 0.8,-10.4 0.8,-15.2 0.4,-7.6 0,-13.6 -1.2,-17.6 v 0 c 0,-0.4 0,-0.4 0,-0.8 v 0 c 0,0 0,0 0,0.4 v 0 c 2.8,3.2 28,34.4 77.2,44.8 z"
   id="path24" />
<path
   style="fill:#ced5e0"
   d="m 316.84231,207.74615 c 0,0 -14,56.4 -34.4,105.2 -2.8,6.4 -5.2,12.4 -8,18 v 0 c -2.4,4.8 -4.8,9.2 -7.2,13.6 -1.6,0 -3.6,0.4 -5.2,0.4 -0.4,0 -1.2,0 -1.6,0 -0.8,0 -2,0 -2.8,0 0,-0.4 0,-0.4 0,-0.8 0,0 8.8,-37.6 16.8,-80.4 v 0 0 c 4.8,-25.2 9.2,-51.6 11.2,-73.2 v 0 c 0,-1.2 0.4,-2.8 0.4,-4 v 0 c 0.4,-5.6 0.8,-10.4 0.8,-15.2 0.4,-7.6 0,-13.6 -1.2,-17.6 v 0 c 0,-0.4 0,-0.4 0,-0.8 v 0 c 0,0 0,0.4 0.4,0.8 v 0 c 2.4,4.8 14,26.8 30.4,31.2 l -14.8,18.4 c 0,0 11.2,5.2 15.2,4.4 z"
   id="path26" />
<g
   id="g32"
   transform="translate(2.4423077,-14.653846)">
	<path
   style="fill:#ffffff"
   d="m 283.2,168 c 0,0 7.2,16.4 -29.2,35.6 l 16.4,24.8 c 0,0.4 26.4,-37.2 12.8,-60.4 z"
   id="path28" />
	<path
   style="fill:#ffffff"
   d="m 224.4,168 c 0,0 -7.2,16.4 29.2,35.6 l -16.4,24.8 c 0,0.4 -26,-37.2 -12.8,-60.4 z"
   id="path30" />
</g>
<g
   id="g40"
   transform="translate(2.4423077,-14.653846)">
	<path
   style="fill:#ffd05b"
   d="m 297.6,114 c 0,32.4 -19.6,74.4 -43.6,74.4 -24,0 -43.6,-42 -43.6,-74.4 0,-32.4 19.6,-42.4 43.6,-42.4 24,0 43.6,10 43.6,42.4 z"
   id="path34" />
	<path
   style="fill:#ffd05b"
   d="m 307.2,129.6 c -2.8,6 -7.6,9.6 -10.8,8.4 -3.6,-1.2 -4,-7.2 -1.6,-13.2 2.8,-6 7.6,-9.6 10.8,-8.4 3.6,1.6 4,7.2 1.6,13.2 z"
   id="path36" />
	<path
   style="fill:#ffd05b"
   d="m 200.8,129.6 c 2.8,6 7.6,9.6 10.8,8.4 3.6,-1.2 4,-7.2 1.6,-13.2 -2.8,-6 -7.6,-9.6 -10.8,-8.4 -3.6,1.6 -4.4,7.2 -1.6,13.2 z"
   id="path38" />
</g>
<path
   style="fill:#324a5e"
   d="m 256.04231,68.546154 c 12.8,-7.2 42.8,-17.2 42.4,46.799996 0,0 28.4,-73.199996 -15.2,-74.399996 0,0 -30.8,-31.2000001 -70.4,14.4 l 6.4,-3.2 c 0,0 -32,18.8 -4.8,63.199996 0,0 -4.8,-63.999996 30.8,-46.399996 3.2,1.6 7.6,1.2 10.8,-0.4 z"
   id="path42" />
<path
   style="fill:#ffd05b"
   d="m 396.44231,321.34615 -15.75872,188.5077 c -77.81559,-0.78715 -77.44128,-0.9077 -123.04128,-0.9077 -45.6,0 -45.87331,0.30468 -122.1778,0.0442 l -16.6222,-187.6442 z"
   id="path44"
   sodipodi:nodetypes="ccsccc" />
<g
   id="g50"
   transform="translate(2.4423077,-14.653846)">
	<polygon
   style="fill:#f9b54c"
   points="116.4,336 391.6,336 392.8,320.4 115.2,320.4 "
   id="polygon46" />
	<polygon
   style="fill:#f9b54c"
   points="115.2,319.6 93.6,322 119.2,367.6 "
   id="polygon48" />
</g>
<path
   style="fill:none;stroke:#ffffff;stroke-width:1.01;stroke-miterlimit:10"
   d="m 130.44231,288.14615 c 0,0 -0.8,-68.4 43.6,-69.2"
   id="path52" />
<rect
   x="96.042305"
   y="278.14615"
   style="fill:#ffd05b"
   width="320.39999"
   height="29.200001"
   id="rect54" />
<ellipse
   style="fill:#ff7058"
   cx="174.44231"
   cy="218.14616"
   rx="10.8"
   ry="8"
   id="ellipse56" />
<g
   id="g58">
</g>
<g
   id="g60">
</g>
<g
   id="g62">
</g>
<g
   id="g64">
</g>
<g
   id="g66">
</g>
<g
   id="g68">
</g>
<g
   id="g70">
</g>
<g
   id="g72">
</g>
<g
   id="g74">
</g>
<g
   id="g76">
</g>
<g
   id="g78">
</g>
<g
   id="g80">
</g>
<g
   id="g82">
</g>
<g
   id="g84">
</g>
<g
   id="g86">
</g>
</svg>
